<svg width="128" height="128" viewBox="0 0 128 128" fill="none" xmlns="http://www.w3.org/2000/svg">
  <rect width="128" height="128" rx="24" fill="url(#paint0_linear)" />
  <g filter="url(#filter0_d)">
    <path
      d="M64 32C45.908 32 32 45.908 32 64C32 82.092 45.908 96 64 96C82.092 96 96 82.092 96 64C96 45.908 82.092 32 64 32ZM64 40C77.255 40 88 50.745 88 64C88 77.255 77.255 88 64 88C50.745 88 40 77.255 40 64C40 50.745 50.745 40 64 40ZM64 48C55.163 48 48 55.163 48 64C48 72.837 55.163 80 64 80C72.837 80 80 72.837 80 64C80 55.163 72.837 48 64 48ZM64 56C68.418 56 72 59.582 72 64C72 68.418 68.418 72 64 72C59.582 72 56 68.418 56 64C56 59.582 59.582 56 64 56Z"
      fill="white"
    />
  </g>
  <defs>
    <filter id="filter0_d" x="28" y="28" width="72" height="72" filterUnits="userSpaceOnUse" color-interpolation-filters="sRGB">
      <feFlood flood-opacity="0" result="BackgroundImageFix" />
      <feColorMatrix in="SourceAlpha" type="matrix" values="0 0 0 0 0 0 0 0 0 0 0 0 0 0 0 0 0 0 127 0" result="hardAlpha" />
      <feOffset dy="2" />
      <feGaussianBlur stdDeviation="2" />
      <feComposite in2="hardAlpha" operator="out" />
      <feColorMatrix type="matrix" values="0 0 0 0 0.0352941 0 0 0 0 0.282353 0 0 0 0 0.298039 0 0 0 0.2 0" />
      <feBlend mode="normal" in2="BackgroundImageFix" result="effect1_dropShadow" />
      <feBlend mode="normal" in="SourceGraphic" in2="effect1_dropShadow" result="shape" />
    </filter>
    <linearGradient id="paint0_linear" x1="16" y1="16" x2="112" y2="112" gradientUnits="userSpaceOnUse">
      <stop stop-color="#0EA5E9" />
      <stop offset="1" stop-color="#1E40AF" />
    </linearGradient>
  </defs>
</svg>
